<?xml version="1.0"?>
<svg width="640" height="480" xmlns="http://www.w3.org/2000/svg" xmlns:svg="http://www.w3.org/2000/svg">
 <!-- Created with SVG-edit - https://github.com/SVG-Edit/svgedit-->

 <g class="layer">
  <title>Layer 1</title>
  <ellipse cx="355" cy="178" fill="#7f3f00" id="svg_9" rx="26" ry="26" stroke="#000000" stroke-width="5"/>
  <ellipse cx="258" cy="178" fill="#7f3f00" id="svg_8" rx="26" ry="26" stroke="#000000" stroke-width="5"/>
  <ellipse cx="306" cy="234" fill="#7f3f00" id="svg_1" rx="66" ry="66" stroke="#000000" stroke-width="5"/>
  <path d="m286,233c0,-7.734807 7.607735,-14 17,-14c9.392265,0 17,6.265193 17,14c0,7.734807 -7.607735,14 -17,14c-9.392265,0 -17,-6.265193 -17,-14z" fill="#000000" id="svg_15" stroke="#000000" stroke-width="5"/>
  <ellipse cx="277" cy="203" fill="#ffffff" id="svg_27" rx="14" ry="14" stroke="#000000" stroke-width="5"/>
  <ellipse cx="324" cy="203" fill="#ffffff" id="svg_28" rx="14" ry="14" stroke="#000000" stroke-width="5"/>
  <circle cx="274" cy="202" fill="#000000" id="svg_31" r="9" stroke="#000000" stroke-width="5"/>
  <circle cx="322" cy="203" fill="#000000" id="svg_32" r="9" stroke="#000000" stroke-width="5"/>
  <path d="m302,229c0,0.446671 0,1.321335 0,2.174667c0,0.940002 0,1.925507 0,2.710663c0,0.940002 0,1.630676 0,2.61467c0,0.985336 0,1.710663 0,2.699997c0,0.800003 0,1.800003 0,2.58934c0,1.043991 0,1.835999 0,2.694672c0,0.863312 0.013519,1.890747 -0.000153,2.837646c-0.010406,0.720215 -0.152069,1.848572 -0.352509,2.626526c-0.137482,0.5336 -0.458557,1.723328 -0.647339,2.530975c-0.198242,0.848083 -0.56308,1.52243 -0.833344,2.520844c-0.213318,0.787994 -0.350769,1.65802 -1.019989,2.399994c-0.394958,0.437897 -1.201996,0.943695 -2.003845,1.799835c-0.520294,0.555542 -0.96759,1.379242 -1.628143,1.914825c-0.673309,0.545959 -1.732758,0.95224 -2.293335,1.285339c-0.921326,0.547455 -1.265656,1.450897 -2.040192,1.59552c-0.933044,0.174225 -1.681183,0.013611 -2.847809,0.004486c-0.682739,-0.005341 -1.67453,-0.141083 -2.334167,-0.357178c-0.949371,-0.310974 -1.56546,-1.021118 -2.284515,-1.558807c-0.696777,-0.520996 -1.514648,-0.800018 -2.357483,-1.136688l-0.352692,-0.651825l-0.040497,-0.895508l-0.389313,-0.799988" fill="none" id="svg_33" stroke="#000000" stroke-width="5"/>
  <path d="m305,234c0,1.800003 0,2.636002 0,3.485336c0,0.919167 0,1.91333 0,2.678665c0,0.953331 0,1.805328 0,2.603996c0,0.981339 0,1.898666 0,2.810669c0,0.832001 0,1.742668 0,2.596001c0,0.940002 0,1.825333 0,2.625336c0,0.899994 0,1.799995 0,2.799995c0,0.810669 -0.092163,1.730247 0.036011,2.574669c0.145935,0.961487 0.601715,1.594925 1.363983,2.214661c0.742615,0.60376 1.823883,0.355804 2.478668,0.832001c0.702209,0.510666 1.442657,0.778671 2.121338,0.778671c0.978485,0 1.798676,0 2.700012,0c0.899994,0 1.8797,0.366699 2.779144,-0.020828c0.714355,-0.307785 1.253296,-0.789551 2.12085,-1.015167c0.865631,-0.225113 1.597504,-0.988312 2.042816,-1.664001c0.47168,-0.715698 1.032715,-1.219421 1.757172,-1.736008c0.785461,-0.560074 1.08963,-1.354538 1.600006,-2.043159c0.514954,-0.694817 0.995514,-1.225334 1.057159,-2.163666l0.776184,-0.523834" fill="none" id="svg_43" stroke="#000000" stroke-width="5"/>
  <path d="m291,262c0,1 -0.344086,1.902557 0.085327,2.714661c0.453735,0.858154 0.789246,1.314209 0.914825,2.263672c0.121552,0.919128 0.953613,1.263794 1.69986,1.669006c0.761108,0.413269 1.717346,0.442139 2.325317,0.927338c0.624512,0.498383 1.574677,0.425323 2.47467,0.425323c0.899994,0 1.799988,0 2.700012,0c0.899994,0 1.800385,0.02536 2.599976,0c0.901398,-0.028595 1.622375,-0.686188 2.5,-0.942841c0.865601,-0.253113 1.804413,0.031525 2.700012,-0.057159c0.845703,-0.08374 1.095062,-0.902069 1.861328,-1.389343c0.901733,-0.573425 1.572815,-0.746765 2.222687,-1.32666c0.652435,-0.582184 1.199982,-1.199982 1.858826,-1.641174l0.057159,-0.94281l0,-0.900024" fill="#ff0000" id="svg_44" stroke="#000000" stroke-width="5" transform="rotate(-10 302.935 266.006)"/>
 </g>
</svg>